<svg fill="#fff" viewBox="0 0 448 448" xmlns="http://www.w3.org/2000/svg"><path d="M200 381a24 24 0 0 1-14-5 8 8 0 0 1-1 0l-91-75H24a24 24 0 0 1-24-24V165a24 24 0 0 1 24-24h70l91-75a8 8 0 0 1 1-1 24 24 0 0 1 38 20v272a24 24 0 0 1-24 24zM94 301zm0-160zM288 301a16 16 0 0 1-14-23 122 122 0 0 0 0-114 16 16 0 0 1 28-14 154 154 0 0 1 0 142 16 16 0 0 1-14 9z"/><path d="M336 349a16 16 0 0 1-14-24c19-33 30-61 30-104 0-44-11-72-30-104a16 16 0 0 1 28-16c21 36 34 69 34 120 0 50-13 83-34 120a16 16 0 0 1-14 8z"/><path d="M384 397a16 16 0 0 1-13-25c27-42 45-83 45-151 0-67-18-109-45-152a16 16 0 1 1 27-17c30 48 50 95 50 169 0 65-15 113-51 169a16 16 0 0 1-13 7z"/></svg>