<svg fill="#fff" viewBox="0 0 60 60" xmlns="http://www.w3.org/2000/svg"><path d="M2.5 0C1.9 0 1.2.2.7.7c-1 1-1 2.6 0 3.6L7.6 11c-5 2.3-7.6 5.4-7.6 8.7v27.4C.2 54.4 13.3 60 30 60s29.8-5.6 30-13V19.9c0-3.3-2.7-6.4-7.6-8.7l6.9-6.8c1-1 1-2.6 0-3.6s-2.6-1-3.6 0l-8.5 8.5A63 63 0 0 0 30 7a63 63 0 0 0-17.2 2.2L4.3.7C3.8.2 3 0 2.5 0ZM30 9c5.6 0 11 .6 15.6 1.8l-9.4 9.5-1.4 1.6-1.4 1.7c-.2.2-.3.5-.3.8a2 2 0 0 0 .4 1.8l.2.3h.1c.4.3.8.5 1.3.5s1-.1 1.3-.4l1.7-1.4 1.6-1.4L51 12.6c4.6 2 7.1 4.6 7.1 7.2v.1c-.2 6-13 11-28 11s-27.8-5-28-11v-.1c0-2.6 2.5-5.2 7.1-7.2l11.2 11.2 1.6 1.4 1.7 1.4.4.2.9.2c.5 0 1-.2 1.3-.5l.3-.3.3-.4a2 2 0 0 0-.2-2.2l-1.4-1.7a17 17 0 0 0-1.4-1.6l-9.4-9.5C19 9.6 24.4 9 30 9Z"/></svg>